<svg xmlns="http://www.w3.org/2000/svg" viewBox="0 0 48 48"><path fill="#EA4335" d="M24 9.5c3.54 0 6.71 1.22 9.21 3.6l6.62-6.62C34.53 4.28 29.56 2 24 2 15.16 2 7.56 7.27 4.5 15.19l7.98 6.19C13.51 15.6 18.2 9.5 24 9.5z"/><path fill="#4285F4" d="M46.98 24c0-1.56-.17-3.08-.47-4.56H24v9.18h12.4c-.61 3.09-2.46 5.69-5.18 7.47l6.62 6.62c3.86-3.56 6.44-8.86 6.44-15.11z"/><path fill="#FBBC04" d="M12.48 32.35c-.98-2.96-1.54-6.15-1.54-9.35s.56-6.39 1.54-9.35L4.5 7.19C1.56 15.11 2 24 2 24s-.44 8.89 2.5 16.81l7.98-6.19z"/><path fill="#34A853" d="M24 46c5.96 0 11.22-2.08 14.9-5.59l-6.62-6.62c-2.73 1.78-4.58 4.38-5.18 7.47H24v-9.18h-12.4v9.18c.61 3.09 2.46 5.69 5.18 7.47l6.62 6.62C12.78 43.92 18.04 46 24 46z"/><path fill="none" d="M0 0h48v48H0z"/></svg>
